<svg xmlns="http://www.w3.org/2000/svg" xmlns:xlink="http://www.w3.org/1999/xlink" width="512" height="512" fill="none" viewBox="0 0 512 512"><rect id="«r3g»" width="512" height="512" x="0" y="0" fill="#F3E9D7" stroke="#FFF" stroke-opacity="100%" stroke-width="0" paint-order="stroke" rx="128"/><clipPath id="clip"><use xlink:href="#«r3g»"/></clipPath><defs><linearGradient id="«r3h»" gradientTransform="rotate(90)" gradientUnits="userSpaceOnUse" style="transform-origin:center center"><stop stop-color="#F3E9D7"/><stop offset="1" stop-color="#3F2B96"/></linearGradient><radialGradient id="«r3i»" cx="0" cy="0" r="1" gradientTransform="translate(256) rotate(90) scale(512)" gradientUnits="userSpaceOnUse"><stop stop-color="#fff"/><stop offset="1" stop-color="#fff" stop-opacity="0"/></radialGradient></defs><svg xmlns="http://www.w3.org/2000/svg" width="400" height="400" x="56" y="56" fill="none" alignment-baseline="middle" viewBox="0 0 16 16" style="color:#d97757"><path stroke="currentColor" stroke-linecap="round" stroke-linejoin="round" stroke-width="1.5" d="M1.75 9v3c0 1.243 1.903 2.25 4.25 2.25s4.25-1.007 4.25-2.25V9m-8.5 0c0 1.243 1.903 2.25 4.25 2.25s4.25-1.007 4.25-2.25m-8.5 0c0-1.243 1.903-2.25 4.25-2.25S10.25 7.757 10.25 9m-4.5-5c0-1.243 1.903-2.25 4.25-2.25S14.25 2.757 14.25 4m0 0c0 .86-.911 1.607-2.25 1.986M14.25 4v3c0 .623-.728 1.343-1.5 1.75"/></svg></svg>